<svg xmlns="http://www.w3.org/2000/svg" style="enable-background:new 0 0 221.7 171.8" xml:space="preserve" viewBox="0 0 221.7 171.8"><path class="words" style="fill: rgb(0, 0, 0);" d="M31.8 83c1.2-.1 1.8-.1 3-.2.4 0 .6.2.7.6v.7c0 .4-.2.7-.6.7-1.9.2-2.8.2-4.7.3-.4 0-.6-.2-.7-.6v-7.9c0-.4.2-.7.6-.7h.9c.4 0 .6.2.6.6.1 2.6.1 3.9.2 6.5zM41.4 84.8h-.9c-.5 0-.7-.1-.9-.6-1.2-3.2-1.8-4.8-2.9-8.1-.1-.3.1-.6.4-.6h1c.5 0 .7.1.8.6.8 2.3 1.2 3.4 2 5.7.8-2.3 1.2-3.5 2-5.8.2-.5.4-.6.8-.6h.9c.3 0 .5.3.4.6-1.1 3.2-1.7 4.9-2.9 8.1 0 .6-.2.7-.7.7zM48.8 84.9c-.5 0-.7 0-1.2-.1-.3 0-.4-.3-.3-.6 1.1-1.7 1.7-2.5 2.7-4.1-.9-1.6-1.4-2.4-2.3-4-.1-.3 0-.6.3-.5.5 0 .8 0 1.3.1.5 0 .7.1.9.6.5.9.8 1.4 1.3 2.4.5-.9.8-1.3 1.3-2.2.3-.5.4-.5 1-.5.5 0 .7 0 1.2.1.3 0 .4.3.3.6-.9 1.5-1.4 2.3-2.4 3.8 1.1 1.8 1.6 2.6 2.7 4.4.2.3 0 .6-.3.5-.5 0-.8 0-1.3-.1-.5 0-.7-.1-1-.6-.6-1.1-1-1.7-1.6-2.8-.6 1.1-1 1.6-1.6 2.6-.3.3-.5.4-1 .4zM14.6 103.3c-.4 0-.5.1-.9.1-.5.1-.7 0-.9-.5-1.4-3-2.1-4.6-3.4-7.6-.1-.3.1-.6.4-.7.4-.1.7-.1 1.1-.1.5-.1.7 0 .9.5.9 2.2 1.4 3.2 2.3 5.4.8-2.4 1.2-3.6 1.9-6 .2-.5.4-.7.9-.7.4-.1.6-.1 1-.1.3 0 .6.2.4.6-1.1 3.4-1.6 5.1-2.8 8.4-.2.5-.4.7-.9.7zM22.5 102.4c-.4 0-.7-.2-.7-.6 0-3.2-.1-4.8-.1-7.9 0-.4.2-.7.6-.7 2.1-.2 3.1-.3 5.2-.4.4 0 .7.2.7.6v.7c0 .4-.2.7-.6.7-1.5.1-2.2.2-3.6.3v1.6c1-.1 1.5-.1 2.5-.2.4 0 .7.2.7.6v.6c0 .4-.2.7-.6.7-1 .1-1.5.1-2.5.2v1.8c1.5-.1 2.2-.2 3.7-.3.4 0 .7.2.7.6v.7c0 .4-.2.7-.6.7-2.2 0-3.3.1-5.4.3zM33.7 101.6h-1c-.4 0-.7-.2-.7-.6v-7.9c0-.4.2-.7.7-.7 1.2 0 1.8-.1 3-.1 2-.1 3.2 1.1 3.3 2.8 0 1.1-.5 2-1.5 2.5.7 1.3 1.1 2 1.9 3.3.2.3 0 .6-.3.6h-1.2c-.5 0-.7-.1-1-.6-.6-1.1-.9-1.7-1.5-2.9h-1v2.8c-.1.6-.3.8-.7.8zm2-7.4h-1.4v2.1h1.4c.6 0 1-.5 1-1.1 0-.6-.4-1.1-1-1zM43.3 101.5c-.4 0-.7-.2-.7-.7v-7.9c0-.4.2-.7.7-.7h.9c.4 0 .6.2.7.7v7.9c0 .4-.2.7-.7.7h-.9zM51.4 101.7c-.4 0-.7-.3-.7-.7 0-2.6.1-3.9.1-6.5-.8 0-1.2-.1-2.1-.1-.4 0-.6-.3-.6-.7V93c0-.4.2-.7.7-.6 2.5.1 3.8.2 6.4.3.4 0 .7.3.7.7v.7c0 .4-.2.7-.7.6-.8 0-1.2-.1-2.1-.1v6.5c0 .4-.2.7-.7.6h-1zM58.3 102c-.4 0-.6-.1-1-.1s-.6-.3-.4-.7c1.4-3.1 2.1-4.7 3.4-7.8.2-.5.4-.6.9-.5.4 0 .6.1.9.1.5 0 .7.2.9.7 1.2 3.3 1.8 5 3.1 8.4.1.3-.1.6-.4.6-.4 0-.7-.1-1.1-.1-.5 0-.7-.2-.9-.7-.2-.5-.2-.7-.4-1.2-1.4-.1-2.1-.2-3.5-.3-.2.4-.3.7-.5 1.1-.2.5-.5.6-1 .5zm4.3-3.2c-.4-1.2-.6-1.8-1-3.1-.5 1.2-.7 1.7-1.2 2.9.9.1 1.3.2 2.2.2zM19.3 119.3c-.4 0-.6.1-.9.1-.5.1-.8-.1-1-.5-1.4-3.1-2.1-4.6-3.5-7.7-.1-.3.1-.6.4-.7.5 0 .7-.1 1.1-.1.5-.1.7.1.9.5.9 2.2 1.4 3.3 2.4 5.5.8-2.4 1.2-3.6 2-5.9.2-.5.4-.7.9-.7.4 0 .6-.1 1-.1s.6.2.5.6c-1.1 3.3-1.7 5-2.9 8.4-.2.4-.4.6-.9.6zM27.4 118.6c-.5 0-.7-.2-.7-.6-.1-3.2-.1-4.8-.1-7.9 0-.4.2-.7.7-.7.4 0 .6 0 1-.1.4 0 .7.2.7.6.1 3.2.1 4.8.2 7.9 0 .4-.2.7-.7.7-.5.1-.7.1-1.1.1zM34.8 118.3h-1c-.5 0-.7-.2-.7-.6v-7.9c0-.4.2-.7.7-.7 1.2 0 1.9 0 3.1-.1 2-.1 3.3 1.1 3.4 2.8 0 1.1-.5 2-1.6 2.5.8 1.3 1.1 2 1.9 3.3.2.3 0 .6-.4.6H39c-.6 0-.8-.1-1-.6-.6-1.1-.9-1.7-1.5-2.9h-1.1v2.8c.1.5-.2.8-.6.8zm2.1-7.5h-1.4v2.1h1.4c.6 0 1-.4 1-1.1 0-.6-.4-1-1-1zM46 118.2c-.5 0-.7-.2-.7-.7 0-2.6 0-3.9.1-6.6h-2.1c-.4 0-.7-.2-.7-.7v-.7c0-.4.2-.7.7-.7 2.6 0 3.9.1 6.6.1.4 0 .7.2.7.7v.7c0 .4-.2.7-.7.6h-2.1v6.6c0 .4-.2.7-.7.7H46zM57.7 118.7c-.4 0-.6 0-.9-.1-.5 0-.7-.2-.9-.7-1.2-3.3-1.8-5-3-8.3-.1-.3.1-.6.5-.6s.7 0 1.1.1c.5 0 .7.2.9.7.8 2.4 1.2 3.5 2.1 5.9.9-2.2 1.4-3.4 2.3-5.6.2-.5.4-.6.9-.6.4 0 .6 0 1 .1.4 0 .6.3.4.6-1.3 3.1-2 4.7-3.3 7.9-.4.5-.6.7-1.1.6zM71.8 101.8c.6.1 1-.2 1-.6 0-.3-.2-.6-.6-.8-.4-.3-1.4-1-1.8-1.3-1-.7-1.4-1.6-1.4-2.5.1-1.5 1.4-2.6 3.2-2.4.8.1 1.7.4 2.3 1 .3.3.3.6 0 .9-.1.1-.3.4-.4.5-.3.3-.6.3-.9 0-.4-.3-.8-.5-1.1-.5-.5-.1-.8.2-.9.6 0 .3.1.6.5.8.4.3 1.4 1 1.8 1.3 1 .7 1.5 1.6 1.4 2.5-.1 1.7-1.5 2.6-3.3 2.4-1.3-.1-2.2-.7-2.9-1.4-.3-.3-.3-.7 0-1l.5-.5c.3-.3.6-.3.9 0 .7.7 1.2 1 1.7 1zM67.1 117.7c.6.1 1-.2 1-.6 0-.3-.2-.6-.5-.8-.4-.3-1.4-1-1.7-1.3-.9-.7-1.4-1.5-1.4-2.5.1-1.5 1.4-2.6 3.1-2.5.8.1 1.7.4 2.3 1 .3.2.2.6 0 .9-.1.1-.3.4-.4.5-.3.3-.6.3-.9 0-.4-.3-.7-.5-1.1-.5-.5 0-.8.2-.9.6 0 .3.1.6.5.8.4.3 1.4 1 1.7 1.3 1 .7 1.4 1.6 1.4 2.5-.1 1.7-1.5 2.6-3.3 2.5-1.2-.1-2.2-.7-2.9-1.3-.3-.3-.3-.7 0-1l.5-.5c.3-.3.6-.3.9 0 .7.6 1.2.9 1.7.9z"></path><path style="fill: rgb(200, 16, 46);" class="mark" d="M43.5 70.1V33.7l145.8 138.1h4.5V48.5c0-27.8 9.3-36.9 27.8-43.9V0h-60.9v4.6c18.6 7.1 27.8 16.2 27.8 43.9v81.4L59.8 6.1C53.9.7 52.3 0 48.5 0H0v4.6c10.6 1.1 17 4.1 32.4 19.1l5.9 5.7v40.7h5.2zM43.5 125.3h-5.3c-.7 25.3-9.9 34-27.8 40.8v4.6h60.9v-4.6c-17.8-6.8-27.1-15.5-27.8-40.8z"></path></svg>